#!OML:ASF H:\LiuWeirdWalks\Patient Classification 1\Patient 1\Session 1\male.ASF
:FULLY-SPECIFIED
:DEGREES
164
root 1.40268 17.8253 -27.8037 3.78156 10.1112 -4.45214
lowerback 5.21483 -0.393719 -6.73067
upperback -1.10777 -0.949267 0.699419
thorax -3.96558 -0.303834 4.59295
lowerneck -14.5583 -0.0982943 9.76763
upperneck 25.9029 -1.42374 -4.6542
head 10.6184 -0.248065 -3.52528
rclavicle -8.44835e-015 7.15625e-015
rhumerus -36.3753 -9.75847 -78.4762
rradius 27.8504
rwrist -5.11728
rhand -14.5979 -3.62561
rfingers 7.12502
rthumb 11.5525 -33.2872
lclavicle -8.44835e-015 7.15625e-015
lhumerus -30.3014 -1.10154 82.8454
lradius 25.7968
lwrist 6.40068
lhand -12.0812 1.51614
lfingers 7.12502
lthumb 13.9788 31.0262
rfemur -17.9131 -10.1826 15.1453
rtibia 65.2108
rfoot 9.02582 -7.74869
rtoes -4.23638
lfemur -15.0528 1.51149 -20.2555
ltibia 32.9452
lfoot -16.5401 6.44313
ltoes -6.25672
165
root 1.40359 17.8217 -27.8072 3.80328 10.0368 -4.46983
lowerback 5.26714 -0.348124 -6.75894
upperback -1.08635 -0.893811 0.692432
thorax -3.97976 -0.275728 4.59777
lowerneck -14.5518 -0.0858413 9.7619
upperneck 25.8285 -1.39406 -4.68882
head 10.5914 -0.241319 -3.5308
rclavicle 1.66979e-014 7.95139e-015
rhumerus -36.2592 -9.5786 -78.5128
rradius 27.9869
rwrist -5.19532
rhand -14.6073 -3.61648
rfingers 7.12502
rthumb 11.5435 -33.2786
lclavicle 1.66979e-014 7.95139e-015
lhumerus -30.2731 -1.12323 82.9271
lradius 25.8974
lwrist 6.47202
lhand -12.1102 1.40729
lfingers 7.12502
lthumb 13.9508 30.9193
rfemur -17.9558 -10.0416 15.1385
rtibia 65.1242
rfoot 9.02383 -7.69487
rtoes -4.07349
lfemur -15.113 1.39286 -20.2694
ltibia 33.0033
lfoot -16.5468 6.71707
ltoes -6.24116
166
root 1.40478 17.8179 -27.8109 3.81962 9.95504 -4.48323
lowerback 5.31929 -0.328652 -6.79462
upperback -1.06825 -0.873022 0.706415
thorax -3.99248 -0.264389 4.6316
lowerneck -14.5391 -0.0225602 9.7798
upperneck 25.7595 -1.28528 -4.77029
head 10.5711 -0.201432 -3.54754
rclavicle 2.88238e-015 -1.19271e-014
rhumerus -36.1145 -9.31518 -78.5558
rradius 28.1099
rwrist -5.28221
rhand -14.6173 -3.60228
rfingers 7.12502
rthumb 11.5338 -33.2649
lclavicle 2.88238e-015 -1.19271e-014
lhumerus -30.2794 -1.06046 83.0055
lradius 26.0069
lwrist 6.53717
lhand -12.1426 1.27781
lfingers 7.12502
lthumb 13.9195 30.7919
rfemur -18.002 -9.90395 15.1243
rtibia 65.079
rfoot 9.02203 -7.60608
rtoes -3.91973
lfemur -15.1612 1.29271 -20.2871
ltibia 33.0521
lfoot -16.5593 6.974
ltoes -6.21934
167
root 1.4063 17.8139 -27.8146 3.83345 9.86642 -4.49094
lowerback 5.36977 -0.333591 -6.83674
upperback -1.05221 -0.884512 0.738361
thorax -4.00188 -0.268788 4.69061
lowerneck -14.5217 0.0880555 9.8178
upperneck 25.6941 -1.10395 -4.89011
head 10.5571 -0.130744 -3.57261
rclavicle -3.06128e-014 7.15625e-015
rhumerus -35.9418 -8.97602 -78.6069
rradius 28.2253
rwrist -5.38314
rhand -14.6308 -3.5901
rfingers 7.12502
rthumb 11.5208 -33.2535
lclavicle -3.06128e-014 7.15625e-015
lhumerus -30.3129 -0.921491 83.0805
lradius 26.1304
lwrist 6.61325
lhand -12.1734 1.16416
lfingers 7.12502
lthumb 13.8899 30.6803
rfemur -18.055 -9.77245 15.1017
rtibia 65.0752
rfoot 9.02755 -7.49158
rtoes -3.80575
lfemur -15.2006 1.21614 -20.3105
ltibia 33.0917
lfoot -16.5791 7.20959
ltoes -6.1781
168
root 1.40811 17.8097 -27.8186 3.84727 9.7719 -4.49077
lowerback 5.4166 -0.373878 -6.89292
upperback -1.03611 -0.942844 0.796613
thorax -4.00233 -0.29615 4.78909
lowerneck -14.5003 0.260074 9.87348
upperneck 25.6298 -0.826352 -5.06052
head 10.5508 -0.0201232 -3.60701
rclavicle -1.63003e-014 1.90833e-014
rhumerus -35.7288 -8.52129 -78.6725
rradius 28.3361
rwrist -5.5058
rhand -14.65 -3.58728
rfingers 7.12502
rthumb 11.5023 -33.2517
lclavicle -1.63003e-014 1.90833e-014
lhumerus -30.3737 -0.660883 83.1474
lradius 26.2717
lwrist 6.70002
lhand -12.1996 1.08743
lfingers 7.12502
lthumb 13.8646 30.6053
rfemur -18.1169 -9.64923 15.0688
rtibia 65.1108
rfoot 9.04521 -7.36731
rtoes -3.75004
lfemur -15.234 1.16801 -20.3416
ltibia 33.1225
lfoot -16.6066 7.41741
ltoes -6.11019
169
root 1.41016 17.8055 -27.8227 3.86209 9.67383 -4.48153
lowerback 5.4591 -0.446823 -6.96381
upperback -1.01756 -1.04447 0.878314
thorax -3.99104 -0.344933 4.92414
lowerneck -14.4764 0.483538 9.93917
upperneck 25.5669 -0.466901 -5.27354
head 10.5522 0.124062 -3.6483
rclavicle -7.85199e-015 1.90833e-014
rhumerus -35.4765 -7.9642 -78.7509
rradius 28.4473
rwrist -5.64869
rhand -14.6745 -3.59461
rfingers 7.12502
rthumb 11.4786 -33.2603
lclavicle -7.85199e-015 1.90833e-014
lhumerus -30.4542 -0.288625 83.2067
lradius 26.4349
lwrist 6.80541
lhand -12.2119 1.07003
lfingers 7.12502
lthumb 13.8528 30.5887
rfemur -18.1866 -9.53655 15.0255
rtibia 65.1821
rfoot 9.07526 -7.25233
rtoes -3.75465
lfemur -15.263 1.14917 -20.3809
ltibia 33.1451
lfoot -16.6414 7.59222
ltoes -6.01477
170
root 1.41232 17.8011 -27.8271 3.8776 9.57632 -4.46278
lowerback 5.49732 -0.547544 -7.04842
upperback -0.996228 -1.18301 0.978765
thorax -3.96812 -0.412102 5.08973
lowerneck -14.4468 0.741405 10.0017
upperneck 25.5112 -0.0497557 -5.51457
head 10.5613 0.291401 -3.69203
rclavicle 2.16675e-014 1.03368e-014
rhumerus -35.1935 -7.32787 -78.8376
rradius 28.5625
rwrist -5.80774
rhand -14.7034 -3.61089
rfingers 7.12502
rthumb 11.4508 -33.2782
lclavicle 2.16675e-014 1.03368e-014
lhumerus -30.5504 0.17469 83.2592
lradius 26.6144
lwrist 6.91827
lhand -12.2123 1.09602
lfingers 7.12502
lthumb 13.8524 30.6147
rfemur -18.2607 -9.43736 14.9723
rtibia 65.2827
rfoot 9.11619 -7.16376
rtoes -3.80497
lfemur -15.2882 1.15557 -20.4278
ltibia 33.1603
lfoot -16.682 7.73198
ltoes -5.89657
171
root 1.41447 17.7967 -27.8314 3.89214 9.48514 -4.43714
lowerback 5.53229 -0.653979 -7.13522
upperback -0.972832 -1.32907 1.07944
thorax -3.93915 -0.483343 5.25741
lowerneck -14.4162 0.992746 10.0496
upperneck 25.4725 0.359789 -5.74659
head 10.5775 0.455458 -3.73129
rclavicle 2.20651e-014 1.74931e-014
rhumerus -34.9057 -6.70264 -78.9206
rradius 28.687
rwrist -5.97088
rhand -14.7353 -3.62958
rfingers 7.12502
rthumb 11.4201 -33.2986
lclavicle 2.20651e-014 1.74931e-014
lhumerus -30.6489 0.63763 83.3119
lradius 26.801
lwrist 7.03964
lhand -12.2014 1.15511
lfingers 7.12502
lthumb 13.863 30.6731
rfemur -18.3334 -9.35468 14.9134
rtibia 65.405
rfoot 9.16582 -7.11322
rtoes -3.87272
lfemur -15.3091 1.17785 -20.4784
ltibia 33.169
lfoot -16.727 7.83895
ltoes -5.76094
172
root 1.41654 17.7925 -27.8356 3.90353 9.40598 -4.40794
lowerback 5.56527 -0.767753 -7.22331
upperback -0.947366 -1.48477 1.18245
thorax -3.90439 -0.559727 5.42905
lowerneck -14.3961 1.239 10.085
upperneck 25.4619 0.763364 -5.97319
head 10.6068 0.616813 -3.76796
rclavicle 1.28216e-014 1.59028e-014
rhumerus -34.6141 -6.08863 -78.9988
rradius 28.82
rwrist -6.13795
rhand -14.7698 -3.64715
rfingers 7.12502
rthumb 11.3867 -33.318
lclavicle 1.28216e-014 1.59028e-014
lhumerus -30.7494 1.10234 83.3645
lradius 26.9854
lwrist 7.15366
lhand -12.1846 1.22843
lfingers 7.12502
lthumb 13.8791 30.7453
rfemur -18.3986 -9.29144 14.8537
rtibia 65.5405
rfoot 9.22283 -7.10445
rtoes -3.92594
lfemur -15.3242 1.20354 -20.5287
ltibia 33.1723
lfoot -16.7748 7.91975
ltoes -5.61228
173
root 1.41851 17.7884 -27.8395 3.91017 9.34316 -4.37868
lowerback 5.59723 -0.868836 -7.30068
upperback -0.921264 -1.6233 1.27143
thorax -3.87051 -0.628064 5.5784
lowerneck -14.3875 1.44762 10.1023
upperneck 25.4805 1.10721 -6.16031
head 10.6446 0.754201 -3.79549
rclavicle 9.93923e-017 1.59028e-014
rhumerus -34.343 -5.56499 -79.0638
rradius 28.9654
rwrist -6.29891
rhand -14.8071 -3.65739
rfingers 7.12502
rthumb 11.3508 -33.3302
lclavicle 9.93923e-017 1.59028e-014
lhumerus -30.8394 1.48795 83.4226
lradius 27.1533
lwrist 7.25606
lhand -12.1703 1.30052
lfingers 7.12502
lthumb 13.8929 30.8165
rfemur -18.4516 -9.24933 14.7975
rtibia 65.6812
rfoot 9.28822 -7.13437
rtoes -3.92128
lfemur -15.332 1.22099 -20.5752
ltibia 33.1713
lfoot -16.8246 7.98319
ltoes -5.45301
